<svg width="1278" height="349" viewBox="0 0 1278 349" fill="none" xmlns="http://www.w3.org/2000/svg">
<path d="M474.4 172.2C474.4 183.4 472.3 193 468.2 201C464.424 208.613 458.569 215.002 451.313 219.426C444.058 223.85 435.697 226.13 427.2 226C418.698 226.154 410.328 223.884 403.067 219.457C395.807 215.03 389.957 208.629 386.2 201C382 193 380 183.3 380 172.2C380 161 382 151.4 386.1 143.4C389.874 135.763 395.742 129.358 403.019 124.931C410.297 120.505 418.683 118.239 427.2 118.4C435.697 118.27 444.058 120.55 451.313 124.974C458.569 129.398 464.424 135.787 468.2 143.4C472.3 151.4 474.4 161 474.4 172.2ZM458.7 172.2C458.7 163.7 457.3 156.5 454.6 150.6C452.204 145.164 448.278 140.542 443.3 137.3C438.6 134.3 433.2 132.8 427.2 132.8C421.481 132.725 415.861 134.287 411 137.3C406.3 140.3 402.6 144.8 399.8 150.6C397.1 156.5 395.7 163.6 395.7 172.2C395.7 180.7 397.1 187.9 399.8 193.7C402.174 199.12 406.063 203.739 411 207C415.8 210 421.2 211.6 427.2 211.6C433.2 211.6 438.6 210.1 443.3 207C448.1 204 451.8 199.6 454.6 193.7C457.3 187.9 458.7 180.7 458.7 172.2ZM492.7 254V146H507.7V158.7H509C509.9 157.1 511.1 155.2 512.8 153.1C515.033 150.342 517.899 148.165 521.156 146.754C524.412 145.344 527.961 144.742 531.5 145C537.592 144.891 543.578 146.603 548.691 149.916C553.804 153.23 557.812 157.995 560.2 163.6C563.1 169.6 564.5 176.9 564.5 185.4C564.5 193.9 563.1 201.2 560.3 207.2C557.793 212.873 553.738 217.726 548.6 221.2C543.555 224.505 537.63 226.213 531.6 226.1C526.9 226.1 523 225.3 520 223.7C517.271 222.345 514.853 220.438 512.9 218.1C511.2 215.9 509.9 214 508.9 212.3H508.1V254H492.8M507.8 185.3C507.8 190.8 508.5 195.6 510.1 199.8C511.7 204 514.1 207.2 517.1 209.5C520.1 211.9 523.8 213 528.2 213C532.8 213 536.6 211.8 539.7 209.4C542.7 206.9 545.1 203.6 546.7 199.4C548.3 195.2 549.1 190.5 549.1 185.3C549.1 180.1 548.3 175.4 546.7 171.3C545.322 167.475 542.896 164.114 539.7 161.6C536.394 159.114 532.333 157.843 528.2 158C523.8 158 520.1 159.1 517 161.4C514 163.7 511.7 166.9 510 171C508.37 175.587 507.59 180.433 507.7 185.3H507.8ZM615.4 226C607.6 226 601 224.4 595.4 221C589.8 217.7 585.5 213 582.5 207C579.5 201 578 193.8 578 185.7C578 177.7 579.5 170.6 582.5 164.4C585.308 158.51 589.707 153.522 595.2 150C600.003 147.224 605.349 145.519 610.872 145.001C616.395 144.483 621.965 145.165 627.2 147C631.6 148.579 635.59 151.122 638.878 154.445C642.166 157.767 644.668 161.784 646.2 166.2C648.2 171.2 649.1 177.2 649.1 184.4V189.8H586.6V178.3H634.1C634.1 174.3 633.3 170.7 631.6 167.6C629.974 164.476 627.494 161.877 624.449 160.107C621.405 158.337 617.92 157.467 614.4 157.6C610.1 157.6 606.4 158.6 603.2 160.6C600.04 162.688 597.464 165.546 595.714 168.905C593.964 172.264 593.099 176.014 593.2 179.8V188.8C593.2 194 594.2 198.4 596 202.1C597.9 205.8 600.5 208.6 603.8 210.5C607.373 212.49 611.412 213.491 615.5 213.4C618.5 213.4 621.1 213 623.5 212.1C625.844 211.31 627.98 210.001 629.746 208.269C631.512 206.537 632.864 204.428 633.7 202.1L648.1 204.8C647 209.1 644.9 212.8 641.9 216C638.9 219.2 635.2 221.6 630.7 223.4C625.808 225.216 620.618 226.098 615.4 226ZM681.4 177.8V224.5H666.1V146H681V158.8H682C683.8 154.6 686.6 151.3 690.5 148.8C694.3 146.2 699.2 145 705.1 145C710.5 145 715.1 146.1 719.1 148.3C723.2 150.6 726.3 153.9 728.5 158.3C730.892 163.393 732.056 168.976 731.9 174.6V224.6H716.6V176.4C716.853 171.555 715.243 166.796 712.1 163.1C709.1 159.8 705.1 158.2 699.9 158.2C696.621 158.142 693.382 158.935 690.5 160.5C687.716 162.083 685.456 164.447 684 167.3C682.318 170.574 681.492 174.221 681.6 177.9L681.4 177.8ZM753.4 224.5V119.8H790.7C798.7 119.8 805.5 121.2 810.9 124C816.3 126.8 820.3 130.7 822.9 135.6C825.648 140.838 827.025 146.686 826.9 152.6C826.9 159.1 825.6 164.7 822.9 169.6C820.16 174.513 815.969 178.46 810.9 180.9C805.5 183.6 798.7 184.9 790.6 184.9H762.4V171.3H789.2C794.3 171.3 798.5 170.6 801.7 169.1C804.9 167.7 807.3 165.5 808.7 162.7C810.282 159.608 811.072 156.172 811 152.7C811 148.7 810.3 145.3 808.8 142.4C807.234 139.447 804.739 137.092 801.7 135.7C797.69 133.999 793.352 133.213 789 133.4H769.1V224.6H753.4M805.1 177.3L830.9 224.6H812.9L787.6 177.3H805.1ZM878.1 226.1C871.477 226.356 864.924 224.676 859.24 221.266C853.557 217.856 848.991 212.864 846.1 206.9C842.919 200.258 841.344 192.962 841.5 185.6C841.5 177.5 843 170.4 846 164.3C848.876 158.317 853.437 153.305 859.121 149.876C864.805 146.448 871.366 144.753 878 145C884.634 144.753 891.195 146.448 896.879 149.876C902.563 153.305 907.124 158.317 910 164.3C913.29 170.907 914.904 178.222 914.7 185.6C914.857 192.962 913.281 200.258 910.1 206.9C907.209 212.864 902.643 217.856 896.96 221.266C891.276 224.676 884.723 226.356 878.1 226.1ZM878.1 213.3C882.9 213.3 886.9 212 890 209.5C893.1 207 895.4 203.6 897 199.5C898.521 194.992 899.265 190.258 899.2 185.5C899.2 180.5 898.5 176 897 171.7C895.635 167.756 893.214 164.263 890 161.6C886.606 158.969 882.391 157.623 878.1 157.8C873.3 157.8 869.3 159 866.1 161.6C863.1 164.2 860.7 167.6 859.1 171.8C857.573 176.238 856.828 180.907 856.9 185.6C856.9 190.6 857.7 195.2 859.2 199.4C860.7 203.6 863 207 866.2 209.5C869.3 212 873.3 213.3 878.2 213.3H878.1ZM981.6 192V146H996.9V224.6H981.9V210.9H981.1C979.137 215.445 975.837 219.285 971.64 221.911C967.443 224.537 962.546 225.823 957.6 225.6C952.908 225.697 948.278 224.522 944.2 222.2C940.27 219.838 937.136 216.356 935.2 212.2C932.834 207.134 931.671 201.59 931.8 196V146H947.1V194.1C946.846 198.777 948.424 203.368 951.5 206.9C954.5 210.1 958.4 211.7 963.1 211.7C966.231 211.656 969.303 210.839 972.042 209.321C974.781 207.803 977.103 205.632 978.8 203C980.7 200.1 981.6 196.4 981.6 192ZM1054.1 146V158.3H1011.1V146H1054.1ZM1022.7 127.2H1038V201.5C1038 204.5 1038.4 206.7 1039.3 208.2C1040.2 209.6 1041.3 210.7 1042.8 211.2C1044.2 211.7 1045.8 212 1047.4 212C1049.2 211.794 1051 211.561 1052.8 211.3L1055.5 223.9C1052.3 225.089 1048.91 225.665 1045.5 225.6C1041.5 225.6 1037.8 224.9 1034.3 223.4C1030.88 221.925 1027.97 219.494 1025.9 216.4C1023.8 213.4 1022.7 209.4 1022.7 204.7V127.2ZM1104.8 226.2C1097.1 226.2 1090.4 224.5 1084.8 221.2C1079.3 217.8 1075 213.2 1072 207.1C1069 201.1 1067.4 193.9 1067.4 185.8C1067.24 178.438 1068.82 171.142 1072 164.5C1075 158.4 1079.2 153.5 1084.6 150.1C1089.4 147.324 1094.75 145.619 1100.27 145.101C1105.8 144.583 1111.36 145.265 1116.6 147.1C1121 148.679 1124.99 151.222 1128.28 154.545C1131.57 157.867 1134.07 161.884 1135.6 166.3C1137.6 171.3 1138.6 177.3 1138.6 184.5V189.9H1076V178.4H1123.4C1123.4 174.4 1122.6 170.8 1121 167.7C1119.36 164.568 1116.86 161.966 1113.8 160.195C1110.74 158.425 1107.23 157.56 1103.7 157.7C1099.4 157.7 1095.7 158.7 1092.5 160.7C1089.4 162.839 1086.87 165.71 1085.14 169.059C1083.42 172.409 1082.54 176.132 1082.6 179.9V188.9C1082.6 194.1 1083.5 198.5 1085.4 202.2C1087.2 205.9 1089.8 208.7 1093.2 210.6C1096.77 212.59 1100.81 213.591 1104.9 213.5C1107.59 213.512 1110.26 213.073 1112.8 212.2C1115.12 211.402 1117.24 210.101 1119.01 208.389C1120.77 206.678 1122.13 204.599 1123 202.3L1137.4 204.9C1136.3 209.092 1134.17 212.942 1131.2 216.1C1128.07 219.381 1124.24 221.911 1120 223.5C1115.11 225.319 1109.92 226.201 1104.7 226.1L1104.8 226.2ZM1155.5 224.6V146H1170.3V158.5H1171.1C1172.6 154.3 1175.1 150.9 1178.7 148.5C1182.4 146 1186.5 144.8 1191.1 144.8C1193.27 144.829 1195.44 144.963 1197.6 145.2V159.8C1194.99 159.13 1192.3 158.794 1189.6 158.8C1186.25 158.783 1182.95 159.608 1180 161.2C1177.2 162.672 1174.86 164.889 1173.23 167.606C1171.61 170.323 1170.77 173.435 1170.8 176.6V224.6H1155.5Z" fill="black"/>
<path d="M89.2 176.5C95.1 176.5 117.8 171.4 129.5 164.7C141.3 158.1 141.3 158.1 165.6 140.8C196.4 119 218.1 126.3 253.8 126.3" fill="black"/>
<path d="M155.403 126.393C192.171 100.369 222.651 108.65 253.8 108.65V143.95C213.549 143.95 200.629 137.631 175.797 155.207C151.481 172.518 150.809 173.005 138.116 180.104L138.115 180.103C130.283 184.555 120.009 187.944 111.748 190.16C103.822 192.286 94.6908 194.15 89.2 194.15V158.85C88.9421 158.85 90.1107 158.803 93.1199 158.245C95.7654 157.754 99.07 157.013 102.602 156.065C110.036 154.071 116.88 151.588 120.729 149.383L120.806 149.339L120.885 149.296C131.784 143.199 131.118 143.682 155.363 126.421L155.384 126.408L155.403 126.393Z" fill="black"/>
<path d="M288.3 126.5L228 161.3V91.7L288.3 126.5Z" fill="black"/>
<path d="M228.1 91.5272L288.7 126.5L288.4 126.674L227.8 161.646V91.3533L228.1 91.5272ZM228.2 160.953L287.899 126.5L228.2 92.0457V160.953Z" fill="black"/>
<path d="M88 176.5C93.9 176.5 116.6 181.5 128.4 188.2C140.1 194.9 140.1 194.9 164.4 212.2C195.2 234 216.9 226.7 252.6 226.7" fill="black"/>
<path d="M88 158.85C93.449 158.85 102.545 160.669 110.503 162.775C118.576 164.912 128.568 168.156 136.367 172.435L137.115 172.852L137.143 172.867L137.171 172.884C149.683 180.049 150.289 180.487 174.637 197.821H174.636C199.442 215.363 212.37 209.05 252.6 209.05V244.35C221.451 244.35 190.971 252.63 154.203 226.606L154.184 226.593L154.163 226.578C129.953 209.342 130.514 209.75 119.686 203.549L118.92 203.131C114.924 201.028 108.449 198.747 101.472 196.9C97.9336 195.964 94.6248 195.233 91.9736 194.749C88.9674 194.2 87.7735 194.15 88 194.15V158.85Z" fill="black"/>
<path d="M287.1 226.4L226.8 191.7V261.2L287.1 226.4Z" fill="black"/>
<path d="M226.9 191.526L287.199 226.226L287.5 226.4L226.9 261.373L226.6 261.547V191.354L226.9 191.526ZM227 260.853L286.698 226.399L227 192.046V260.853Z" fill="black"/>
</svg>
